<svg width="1291" height="160" viewBox="0 0 1291 160" fill="none" xmlns="http://www.w3.org/2000/svg">
<g clip-path="url(#clip0_25_4)">
<rect width="1291" height="160" rx="20" fill="url(#paint0_linear_25_4)"/>
<g clip-path="url(#clip1_25_4)">
<path opacity="0.7" d="M611.43 -14.31C611.43 -14.31 531.03 -130.06 430.65 -142.34C342.04 -153.18 259.79 -110.81 248.34 -19.25C244.26 13.38 237 49.47 224.1 79.24C209.64 112.62 184.94 140.41 203.86 204.58C222.77 268.75 302.62 326.69 360.67 326.55C418.72 326.4 473.25 273.66 518.24 225.67C563.22 177.68 706.5 132.57 611.43 -14.31Z" fill="#5B7CBD" fill-opacity="0.2"/>
</g>
<g clip-path="url(#clip2_25_4)">
<path d="M450.692 83.6887H361.676C358.771 83.6887 356.316 85.824 355.893 88.6955L342.588 179.839H448.43L456.512 90.0668C456.825 86.6339 454.131 83.6887 450.692 83.6887Z" fill="#263238" stroke="#263238" stroke-miterlimit="10" stroke-linecap="round" stroke-linejoin="round"/>
<path d="M330.193 68.8155C330.193 68.8155 306.112 80.771 297.845 84.0844C289.57 87.3977 287.556 88.8702 286.821 90.895C286.085 92.9199 253.922 143.512 250.244 148.114C246.566 152.716 238.667 162.647 239.771 169.457C240.874 176.268 249.692 182.149 258.151 181.965C266.61 181.781 271.934 180.124 272.854 177.731C273.773 175.338 297.119 133.582 297.119 133.582L304.475 180.124H398.391C398.391 180.124 405.747 116.472 405.747 107.084C405.747 97.6965 407.586 86.6614 403.724 84.2684C399.862 81.8755 383.872 76.3533 372.112 72.497C360.352 68.6314 356.674 67.8951 353.916 67.8951C351.139 67.8951 330.193 68.8155 330.193 68.8155Z" fill="white" stroke="#263238" stroke-miterlimit="10" stroke-linecap="round" stroke-linejoin="round"/>
<path d="M327.618 69.1837C327.618 69.1837 324.492 75.074 324.308 79.8507C324.124 84.6366 323.389 93.4629 320.63 98.801C317.872 104.139 315.849 107.084 317.32 106.532C318.791 105.98 327.241 96.6014 328.161 94.5766C329.08 92.5518 330.552 96.4173 330.552 96.4173C330.552 96.4173 327.793 104.332 327.425 105.428C327.057 106.532 339.002 121.801 339.002 121.801C339.002 121.801 349.291 113.702 351.681 111.87C354.072 110.029 353.336 108.557 353.52 106.164C353.704 103.771 354.44 100.274 355.727 98.2488C357.014 96.224 360.692 104.139 363.267 107.811C365.841 111.493 368.416 112.781 368.048 110.02C367.68 107.259 366.393 101.921 365.474 92.5426C364.554 83.164 364.738 71.9356 362.347 68.4382C359.957 64.9408 347.415 64.2506 339.185 63.6523C330.965 63.0725 327.618 69.1837 327.618 69.1837Z" fill="white" stroke="#263238" stroke-miterlimit="10" stroke-linecap="round" stroke-linejoin="round"/>
<path d="M290.49 100.476L297.11 133.572L288.559 111.566" stroke="#263238" stroke-miterlimit="10" stroke-linecap="round" stroke-linejoin="round"/>
<path d="M328.537 78.0102C328.537 78.0102 331.112 92.3587 333.502 103.403C335.893 114.438 339.019 121.801 339.019 121.801C339.019 121.801 351.147 101.378 354.641 90.7112C358.135 80.0442 359.239 72.6813 359.239 72.6813H328.546V78.0102H328.537Z" stroke="#263238" stroke-miterlimit="10" stroke-linecap="round" stroke-linejoin="round"/>
<path d="M341.952 82.98L335.332 91.2633L339.93 100.09L335.406 111.06C337.281 117.705 339.01 121.801 339.01 121.801C339.01 121.801 342.789 115.432 346.743 107.949L343.424 100.274L347.469 91.0792L341.952 82.98Z" fill="#9D73E3" stroke="#263238" stroke-miterlimit="10" stroke-linecap="round" stroke-linejoin="round"/>
<path d="M328.537 72.6719V78.01C328.537 78.01 330.312 87.9131 332.279 97.5861L341.585 87.7566L351.386 98.6353C352.729 95.7454 353.878 92.9935 354.632 90.7018C358.126 80.0348 359.23 72.6719 359.23 72.6719H328.537Z" fill="white" stroke="#263238" stroke-miterlimit="10" stroke-linecap="round" stroke-linejoin="round"/>
<path d="M248.404 153.554C248.404 153.554 265.571 147.277 274.83 162.555" stroke="#263238" stroke-miterlimit="10" stroke-linecap="round" stroke-linejoin="round"/>
<path d="M275.124 157.842C275.124 157.842 265.533 160.014 260.394 168.197C255.244 176.379 265.69 177.28 268.568 177.28C271.446 177.28 274.167 175.357 274.324 174.345C274.471 173.341 278.259 163.641 278.103 161.377C277.946 159.113 276.236 157.944 275.124 157.842Z" fill="white" stroke="#263238" stroke-miterlimit="10" stroke-linecap="round" stroke-linejoin="round"/>
<path d="M284.053 161.045L277.672 159.941L279.18 169.135L285.699 169.338L284.053 161.045Z" fill="white" stroke="#263238" stroke-miterlimit="10" stroke-linecap="round" stroke-linejoin="round"/>
<path d="M272.578 146.596L280.053 172.817L283.685 176.121V171.455L275.778 145.648C275.502 144.746 274.537 144.249 273.645 144.562C272.799 144.838 272.33 145.74 272.578 146.596Z" fill="#263238" stroke="#263238" stroke-miterlimit="10" stroke-linecap="round" stroke-linejoin="round"/>
<path d="M275.125 157.842C275.125 157.842 270.721 160.429 271.162 162.38C271.603 164.331 276.357 173.516 278.086 173.636C279.805 173.756 280.844 172.669 280.596 170.728C280.348 168.786 278.72 161.551 277.681 159.941C276.642 158.33 276.477 157.741 275.125 157.842Z" fill="white" stroke="#263238" stroke-miterlimit="10" stroke-linecap="round" stroke-linejoin="round"/>
<path d="M350.403 160.245C350.403 160.245 336.987 158.772 333.677 157.668C330.367 156.563 325.043 155.643 323.204 157.115C321.365 158.588 312.364 169.071 312.18 170.359C311.996 171.648 310.157 175.882 311.076 176.986C311.996 178.09 313.835 178.643 313.835 178.643C313.835 178.643 325.779 181.956 327.066 182.14C328.353 182.324 340.665 181.772 340.665 181.772L347.102 179.379L356.104 179.195C356.104 179.195 356.287 182.14 356.471 174.961C356.655 167.792 350.403 160.245 350.403 160.245Z" fill="white" stroke="#263238" stroke-miterlimit="10" stroke-linecap="round" stroke-linejoin="round"/>
<path d="M392.497 101.01C392.497 101.01 382.759 121.433 383.311 128.602C383.863 135.781 386.253 147.737 386.253 147.737C386.253 147.737 370.815 153.811 365.482 156.02C360.149 158.229 350.412 160.254 350.412 160.254L355.377 179.756L354.642 181.781H408.128C408.128 181.781 412.174 181.045 412.909 180.124C413.645 179.204 414.381 178.836 414.748 175.891C415.116 172.946 417.507 147.194 416.955 140.015C416.403 132.836 408.864 95.4969 407.953 91.6314C407.034 87.7659 405.379 85.1888 403.724 84.2685C402.069 83.3481 394.906 82.6118 394.906 82.6118" fill="white"/>
<path d="M392.497 101.01C392.497 101.01 382.759 121.433 383.311 128.602C383.863 135.781 386.253 147.737 386.253 147.737C386.253 147.737 370.815 153.811 365.482 156.02C360.149 158.229 350.412 160.254 350.412 160.254L355.377 179.756L354.642 181.781H408.128C408.128 181.781 412.174 181.045 412.909 180.124C413.645 179.204 414.381 178.836 414.748 175.891C415.116 172.946 417.507 147.194 416.955 140.015C416.403 132.836 408.864 95.4969 407.953 91.6314C407.034 87.7659 405.379 85.1888 403.724 84.2685C402.069 83.3481 394.906 82.6118 394.906 82.6118" stroke="#263238" stroke-miterlimit="10" stroke-linecap="round" stroke-linejoin="round"/>
<path d="M387.531 148.105C387.531 148.105 401.682 148.841 408.67 153.259" stroke="#263238" stroke-miterlimit="10" stroke-linecap="round" stroke-linejoin="round"/>
<path d="M390.105 146.264C390.105 146.264 400.027 145.712 405.36 147.369" stroke="#263238" stroke-miterlimit="10" stroke-linecap="round" stroke-linejoin="round"/>
<path d="M387.347 100.458C387.347 100.458 382.382 112.045 382.198 116.463C382.014 120.881 381.646 123.458 381.646 123.458" stroke="#263238" stroke-miterlimit="10" stroke-linecap="round" stroke-linejoin="round"/>
<path d="M364.748 69.736C364.748 69.736 375.957 85.7411 366.955 130.259" stroke="#263238" stroke-width="2" stroke-miterlimit="10" stroke-linecap="round" stroke-linejoin="round"/>
<path d="M372.278 131.548C372.278 128.501 369.814 126.025 366.761 126.025C363.717 126.025 361.244 128.492 361.244 131.548C361.244 134.594 363.708 137.07 366.761 137.07C369.814 137.07 372.278 134.594 372.278 131.548Z" fill="white" stroke="#263238" stroke-miterlimit="10" stroke-linecap="round" stroke-linejoin="round"/>
<path d="M326.515 71.3927C326.515 71.3927 320.814 75.0742 319.895 89.9749" stroke="#263238" stroke-width="2" stroke-miterlimit="10" stroke-linecap="round" stroke-linejoin="round"/>
<path d="M327.774 112.542C326.385 122.602 324.491 133.388 324.068 135.754C323.158 140.807 317.135 142.583 313.273 140.926" stroke="#263238" stroke-width="2" stroke-miterlimit="10" stroke-linecap="round" stroke-linejoin="round"/>
<path d="M313.376 113.214C312.117 107.581 311.344 102.694 311.62 100.458C312.908 90.1589 319.896 89.9749 319.896 89.9749C319.896 89.9749 328.171 91.0793 328.713 99.9056C328.897 102.851 328.465 107.517 327.776 112.542" stroke="#263238" stroke-width="2" stroke-miterlimit="10" stroke-linecap="round" stroke-linejoin="round"/>
<path d="M328.905 140.199C328.905 140.199 325.043 142.408 322.469 140.935C320.731 139.941 315.996 124.958 313.375 113.214" stroke="#263238" stroke-width="2" stroke-miterlimit="10" stroke-linecap="round" stroke-linejoin="round"/>
<path d="M331.426 140.871L329.899 141.534C329.164 141.847 328.318 141.515 328.005 140.779L327.987 140.733C327.674 140.006 328.005 139.15 328.741 138.837L330.267 138.174C331.003 137.861 331.849 138.193 332.161 138.929L332.18 138.975C332.492 139.711 332.161 140.558 331.426 140.871Z" stroke="#263238" stroke-miterlimit="10" stroke-linecap="round" stroke-linejoin="round"/>
<path d="M312.253 141.709L310.828 140.853C310.147 140.438 309.927 139.555 310.331 138.874L310.359 138.837C310.773 138.156 311.655 137.935 312.336 138.34L313.761 139.196C314.441 139.61 314.662 140.494 314.257 141.175L314.23 141.212C313.825 141.902 312.933 142.123 312.253 141.709Z" stroke="#263238" stroke-miterlimit="10" stroke-linecap="round" stroke-linejoin="round"/>
<path d="M319.895 26.8655C319.895 26.8655 316.953 33.8602 317.504 38.2688C318.056 42.6865 323.941 47.4632 323.941 47.4632C323.941 47.4632 325.964 27.7766 325.964 27.0403C325.964 26.3133 322.286 24.6566 319.895 26.8655Z" fill="#263238" stroke="#263238" stroke-miterlimit="10" stroke-linecap="round" stroke-linejoin="round"/>
<path d="M317.789 51.8993L321.697 49.1658" stroke="#263238" stroke-width="2" stroke-miterlimit="10" stroke-linecap="round" stroke-linejoin="round"/>
<path d="M322.102 28.154C322.102 28.154 321.366 47.6565 321.734 51.338C322.102 55.0194 323.573 66.7909 324.86 70.4723C326.147 74.1538 330.377 85.9253 333.678 87.2138C336.988 88.5023 343.599 89.4226 345.806 87.9501C348.013 86.4775 356.095 80.9553 358.302 75.6264C360.509 70.2883 360.876 65.8797 360.876 65.8797C360.876 65.8797 366.761 63.1186 367.864 56.1331C368.968 49.1383 366.025 47.1227 366.025 47.1227L366.209 34.9831C366.209 34.9831 364.186 26.5158 358.853 21.9231C353.52 17.3213 347.277 16.9532 340.841 20.4505C334.414 23.9203 322.102 28.154 322.102 28.154Z" fill="white" stroke="#263238" stroke-miterlimit="10" stroke-linecap="round" stroke-linejoin="round"/>
<path d="M356.655 27.0495C356.655 27.0495 356.839 22.2636 352.242 23.9203C347.644 25.5769 346.541 28.7061 339.746 31.4672C332.942 34.2283 323.94 31.0991 320.814 29.2584C317.688 27.4176 315.481 24.8406 319.711 20.0639C323.94 15.278 333.861 10.5013 344.527 10.5013C355.184 10.5013 363.46 19.3276 366.954 23.0091C370.448 26.6905 370.999 31.2924 369.712 34.5965C368.425 37.9098 366.034 47.1042 366.034 47.1042C366.034 47.1042 364.563 46.9202 364.011 49.129C363.46 51.3379 363.644 53.7309 361.253 53.9149C358.862 54.099 359.046 47.6564 359.046 47.6564C359.046 47.6564 353.161 45.8157 352.426 41.582C351.69 37.3576 356.655 31.0991 356.655 27.0495Z" fill="#263238" stroke="#263238" stroke-miterlimit="10" stroke-linecap="round" stroke-linejoin="round"/>
<path d="M334.781 54.8905L317.779 51.8901L318.772 59.52C318.901 60.5047 319.655 61.2871 320.639 61.4343L330.965 63.0634C332.151 63.2474 333.263 62.4743 333.502 61.2963L334.781 54.8905Z" stroke="#263238" stroke-width="2" stroke-miterlimit="10" stroke-linecap="round" stroke-linejoin="round"/>
<path d="M337.861 55.2219L357.575 54.6512L355.644 61.7933C355.396 62.7136 354.449 63.3579 353.308 63.3763L341.346 63.542C339.976 63.5604 338.781 62.6676 338.643 61.5172L337.861 55.2219Z" stroke="#263238" stroke-width="2" stroke-miterlimit="10" stroke-linecap="round" stroke-linejoin="round"/>
<path d="M334.781 54.8905L337.862 55.2218" stroke="#263238" stroke-width="2" stroke-miterlimit="10" stroke-linecap="round" stroke-linejoin="round"/>
<path d="M357.574 54.6512L364.011 49.129" stroke="#263238" stroke-width="2" stroke-miterlimit="10" stroke-linecap="round" stroke-linejoin="round"/>
<path d="M340.482 52.9946C340.482 52.9946 345.999 48.7609 351.139 51.3379" stroke="#263238" stroke-width="2" stroke-miterlimit="10" stroke-linecap="round" stroke-linejoin="round"/>
<path d="M332.215 52.0742C332.215 52.0742 327.985 47.4724 323.213 50.6016" stroke="#263238" stroke-width="2" stroke-miterlimit="10" stroke-linecap="round" stroke-linejoin="round"/>
<path d="M333.309 68.0793C333.309 68.0793 332.39 71.9449 333.309 72.6812C334.229 73.4175 337.171 73.9697 338.458 73.6015" stroke="#263238" stroke-miterlimit="10" stroke-linecap="round" stroke-linejoin="round"/>
<path d="M330.56 75.6171C330.56 75.6171 334.238 78.3782 337.732 78.5622C341.226 78.7463 345.272 76.1693 345.272 76.1693" stroke="#263238" stroke-miterlimit="10" stroke-linecap="round" stroke-linejoin="round"/>
<path d="M344.16 56.8508C344.16 56.8508 346.367 59.4278 350.045 56.6667" stroke="#263238" stroke-miterlimit="10" stroke-linecap="round" stroke-linejoin="round"/>
<path d="M326.055 55.7189C326.055 55.7189 327.884 58.572 331.903 56.3447" stroke="#263238" stroke-miterlimit="10" stroke-linecap="round" stroke-linejoin="round"/>
<path d="M212.004 27.031C212.004 27.031 213.172 44.564 212.299 46.0273C211.425 47.4907 209.669 50.4083 209.669 50.4083C209.669 50.4083 210.837 62.9713 208.501 64.4346C206.166 65.898 202.662 66.1925 202.662 66.1925C202.662 66.1925 200.327 75.5434 199.453 76.7123C198.58 77.8812 193.32 81.6823 191.573 82.2621C189.826 82.8419 184.273 83.1364 171.133 75.2489C157.994 67.3614 153.029 64.7291 153.323 60.3482C153.617 55.9673 154.196 50.9973 154.196 50.9973C154.196 50.9973 155.658 29.9578 158.288 23.5244C160.918 17.0911 194.203 13.5845 201.504 15.3424C208.805 17.1003 212.004 27.031 212.004 27.031Z" fill="white" stroke="#263238" stroke-miterlimit="10" stroke-linecap="round" stroke-linejoin="round"/>
<path d="M178.141 55.9673L180.182 57.4307C180.182 57.4307 178.426 64.4438 179.308 67.6559" stroke="#263238" stroke-miterlimit="10" stroke-linecap="round" stroke-linejoin="round"/>
<path d="M207.334 50.0953C207.04 51.4299 206.332 52.4147 205.762 52.2858C205.192 52.157 204.962 50.9697 205.265 49.6352C205.559 48.3006 206.267 47.3158 206.838 47.4447C207.408 47.5735 207.628 48.7608 207.334 50.0953Z" fill="#263238"/>
<path d="M204.346 44.7297C204.346 44.7297 207.527 41.5452 210.184 44.5548" stroke="#263238" stroke-miterlimit="10" stroke-linecap="round" stroke-linejoin="round"/>
<path d="M200.328 24.6933C200.328 24.6933 204.125 31.7065 203.831 33.1699C203.537 34.6333 191.565 38.1398 191.565 38.1398C191.565 38.1398 190.397 45.153 188.641 46.0274C186.885 46.9017 186.885 46.9017 186.885 46.9017C186.885 46.9017 185.423 45.1438 183.381 40.7629C181.34 36.3819 178.416 35.2131 175.207 39.594C171.998 43.975 174.619 54.2094 176.375 55.0837C178.131 55.9581 178.131 55.9581 178.131 55.9581C178.131 55.9581 176.669 57.4215 171.125 58.2958C165.58 59.1702 161.488 60.339 157.406 59.1702C153.314 58.0013 147.476 46.8925 145.434 32.5716C143.393 18.2508 149.811 5.97311 158.279 2.18121C166.748 -1.61989 186.02 1.8867 187.473 2.77024C188.935 3.64459 198.856 -1.03086 204.695 1.8959C210.534 4.82266 210.24 8.03473 211.702 10.0779C213.164 12.1211 220.749 9.4889 221.338 16.7966C221.926 24.1043 219.002 28.4852 215.205 29.0743C211.426 29.6633 200.328 24.6933 200.328 24.6933Z" fill="#263238" stroke="#263238" stroke-miterlimit="10" stroke-linecap="round" stroke-linejoin="round"/>
<path d="M131.19 70.5734C131.19 70.5734 103.211 85.511 97.8775 88.4469C92.5445 91.3829 91.7445 94.0519 91.4779 96.7118C91.2112 99.3808 91.4779 189.54 91.4779 189.54H242.577C242.577 189.54 219.663 120.724 218.863 112.984C218.063 105.253 216.464 91.6498 214.33 90.0483C212.197 88.4469 182.084 75.1108 182.084 75.1108C182.084 75.1108 174.884 67.3798 157.837 67.3798C140.79 67.3706 131.19 70.5734 131.19 70.5734Z" fill="#9D73E3" stroke="#263238" stroke-miterlimit="10" stroke-linecap="round" stroke-linejoin="round"/>
<path d="M148.524 125.455C149.314 125.768 150.114 126.053 150.914 126.32" stroke="#263238" stroke-miterlimit="10" stroke-linecap="round" stroke-linejoin="round"/>
<path d="M118.668 100.715C118.668 100.715 129.702 116.131 144.772 123.761" stroke="#263238" stroke-miterlimit="10" stroke-linecap="round" stroke-linejoin="round"/>
<path d="M128.258 118.589C128.258 118.589 134.391 124.728 147.181 128.188" stroke="#263238" stroke-miterlimit="10" stroke-linecap="round" stroke-linejoin="round"/>
<path d="M204.189 96.4725C199.932 101.314 193.937 109.054 191.951 116.178" stroke="#263238" stroke-miterlimit="10" stroke-linecap="round" stroke-linejoin="round"/>
<path d="M208.74 91.6498C208.74 91.6498 207.894 92.4689 206.57 93.8679" stroke="#263238" stroke-miterlimit="10" stroke-linecap="round" stroke-linejoin="round"/>
<path d="M193.552 107.646C193.552 107.646 189.552 115.377 188.752 120.181" stroke="#263238" stroke-miterlimit="10" stroke-linecap="round" stroke-linejoin="round"/>
<path d="M129.59 71.9081C129.59 71.9081 145.046 71.3742 159.703 71.6412C174.36 71.9081 183.95 76.4455 183.95 76.4455C183.95 76.4455 175.16 65.7784 171.16 63.3763C167.16 60.9741 154.903 56.9705 144.78 60.1734C134.656 63.3671 129.59 71.9081 129.59 71.9081Z" fill="#9D73E3" stroke="#263238" stroke-miterlimit="10" stroke-linecap="round" stroke-linejoin="round"/>
<path d="M85.6386 189.466L71.5521 135.422C70.9728 132.615 73.1152 129.992 75.9748 129.992H188.051C190.175 129.992 192.005 131.474 192.464 133.545L204.905 189.54" fill="#263238"/>
<path d="M85.6386 189.466L71.5521 135.422C70.9728 132.615 73.1152 129.992 75.9748 129.992H188.051C190.175 129.992 192.005 131.474 192.464 133.545L204.905 189.54" stroke="#263238" stroke-miterlimit="10" stroke-linecap="round" stroke-linejoin="round"/>
</g>
</g>
<path d="M520.723 88.791V71.7285H526.945C528.836 71.7285 530.285 72.2129 531.293 73.1816C532.301 74.1504 532.805 75.4785 532.805 77.166C532.805 78.8535 532.301 80.1895 531.293 81.1738C530.293 82.1504 528.84 82.6387 526.934 82.6387H523.875V88.791H520.723ZM523.875 80.2715H526.617C527.75 80.2715 528.535 79.9863 528.973 79.416C529.418 78.8379 529.641 78.0918 529.641 77.1777C529.641 76.2793 529.418 75.5488 528.973 74.9863C528.535 74.4238 527.75 74.1426 526.617 74.1426H523.875V80.2715ZM535.066 88.791V71.7285H546.047V74.2012H538.184V78.8301H544.98V81.2207H538.184V86.3418H546.176V88.791H535.066ZM548.52 71.7285H551.672V86.3184H556.793V71.7285H559.945V86.3184H565.066V71.7285H568.219V88.791H548.52V71.7285ZM569.73 88.791L575.941 71.6582H579.246L585.492 88.791H582.188L577.898 76.4277C577.805 76.1543 577.727 75.9004 577.664 75.666C577.602 75.4238 577.547 75.1816 577.5 74.9395H577.406C577.359 75.1816 577.301 75.4238 577.23 75.666C577.168 75.9004 577.094 76.1543 577.008 76.4277L572.73 88.791H569.73ZM572.965 84.8184L573.68 82.4746H581.367L582.094 84.8184H572.965ZM587.027 88.791V71.7285H598.008V74.2012H590.145V78.8301H596.941V81.2207H590.145V86.3418H598.137V88.791H587.027ZM600.48 88.791V71.7285H604.605L608.871 83.2598C608.965 83.5176 609.047 83.7715 609.117 84.0215C609.195 84.2637 609.258 84.5215 609.305 84.7949H609.387C609.441 84.5215 609.504 84.2637 609.574 84.0215C609.652 83.7715 609.734 83.5176 609.82 83.2598L614.098 71.7285H618.27V88.791H615.152V77.4707C615.152 77.2129 615.156 76.9277 615.164 76.6152C615.18 76.3027 615.199 76.0215 615.223 75.7715H615.141C615.094 76.0293 615.027 76.3145 614.941 76.627C614.863 76.9316 614.777 77.2129 614.684 77.4707L610.535 88.791H607.852L603.703 77.4707C603.609 77.2129 603.52 76.9238 603.434 76.6035C603.348 76.2754 603.289 75.998 603.258 75.7715H603.164C603.188 75.998 603.203 76.2754 603.211 76.6035C603.227 76.9238 603.234 77.2129 603.234 77.4707V88.791H600.48ZM627.41 88.791V71.7285H633.516C635.297 71.7285 636.68 72.0957 637.664 72.8301C638.656 73.5566 639.152 74.6777 639.152 76.1934C639.152 77.1465 638.93 77.9277 638.484 78.5371C638.047 79.1465 637.5 79.5645 636.844 79.791V79.8379C637.656 80.0645 638.324 80.5215 638.848 81.209C639.371 81.8887 639.633 82.791 639.633 83.916C639.633 85.4629 639.105 86.6621 638.051 87.5137C636.996 88.3652 635.594 88.791 633.844 88.791H627.41ZM630.516 86.5059H633.645C634.621 86.5059 635.336 86.2598 635.789 85.7676C636.25 85.2676 636.48 84.5996 636.48 83.7637C636.48 82.9199 636.25 82.252 635.789 81.7598C635.336 81.2676 634.621 81.0215 633.645 81.0215H630.516V86.5059ZM630.516 78.9004H633.328C634.289 78.9004 634.984 78.6855 635.414 78.2559C635.844 77.8184 636.059 77.2129 636.059 76.4395C636.059 75.666 635.844 75.0762 635.414 74.6699C634.984 74.2559 634.289 74.0488 633.328 74.0488H630.516V78.9004ZM641.719 80.7754V79.7441C641.719 77.002 642.398 74.9277 643.758 73.5215C645.117 72.1074 646.871 71.4004 649.02 71.4004C651.16 71.4004 652.914 72.1074 654.281 73.5215C655.656 74.9277 656.344 77.002 656.344 79.7441V80.7754C656.344 83.5176 655.656 85.5957 654.281 87.0098C652.914 88.416 651.16 89.1191 649.02 89.1191C646.871 89.1191 645.117 88.416 643.758 87.0098C642.398 85.5957 641.719 83.5176 641.719 80.7754ZM644.953 81.127C644.953 82.9863 645.32 84.377 646.055 85.2988C646.797 86.2207 647.785 86.6816 649.02 86.6816C650.262 86.6816 651.25 86.2207 651.984 85.2988C652.727 84.377 653.098 82.9863 653.098 81.127V79.3926C653.098 77.5332 652.727 76.1465 651.984 75.2324C651.25 74.3105 650.262 73.8496 649.02 73.8496C647.785 73.8496 646.797 74.3105 646.055 75.2324C645.32 76.1465 644.953 77.5332 644.953 79.3926V81.127ZM659.191 88.791V71.7285H672.387V88.791H669.234V74.2012H662.344V88.791H659.191ZM675.832 88.791V71.7285H682.055C683.945 71.7285 685.395 72.2129 686.402 73.1816C687.41 74.1504 687.914 75.4785 687.914 77.166C687.914 78.8535 687.41 80.1895 686.402 81.1738C685.402 82.1504 683.949 82.6387 682.043 82.6387H678.984V88.791H675.832ZM678.984 80.2715H681.727C682.859 80.2715 683.645 79.9863 684.082 79.416C684.527 78.8379 684.75 78.0918 684.75 77.1777C684.75 76.2793 684.527 75.5488 684.082 74.9863C683.645 74.4238 682.859 74.1426 681.727 74.1426H678.984V80.2715ZM689.578 80.7754V79.7441C689.578 77.002 690.258 74.9277 691.617 73.5215C692.977 72.1074 694.73 71.4004 696.879 71.4004C699.02 71.4004 700.773 72.1074 702.141 73.5215C703.516 74.9277 704.203 77.002 704.203 79.7441V80.7754C704.203 83.5176 703.516 85.5957 702.141 87.0098C700.773 88.416 699.02 89.1191 696.879 89.1191C694.73 89.1191 692.977 88.416 691.617 87.0098C690.258 85.5957 689.578 83.5176 689.578 80.7754ZM692.812 81.127C692.812 82.9863 693.18 84.377 693.914 85.2988C694.656 86.2207 695.645 86.6816 696.879 86.6816C698.121 86.6816 699.109 86.2207 699.844 85.2988C700.586 84.377 700.957 82.9863 700.957 81.127V79.3926C700.957 77.5332 700.586 76.1465 699.844 75.2324C699.109 74.3105 698.121 73.8496 696.879 73.8496C695.645 73.8496 694.656 74.3105 693.914 75.2324C693.18 76.1465 692.812 77.5332 692.812 79.3926V81.127ZM706.453 80.7754V79.7441C706.453 76.9941 707.129 74.9199 708.48 73.5215C709.832 72.1152 711.574 71.4121 713.707 71.4121C715.77 71.4121 717.391 71.9512 718.57 73.0293C719.75 74.1074 720.34 75.5137 720.34 77.248V77.6113H717.199V77.166C717.199 76.1348 716.91 75.3262 716.332 74.7402C715.754 74.1465 714.875 73.8496 713.695 73.8496C712.5 73.8496 711.535 74.2871 710.801 75.1621C710.074 76.0371 709.711 77.4355 709.711 79.3574V81.1621C709.711 82.9668 710.074 84.3379 710.801 85.2754C711.527 86.2129 712.504 86.6816 713.73 86.6816C714.855 86.6816 715.699 86.377 716.262 85.7676C716.824 85.1582 717.133 84.334 717.188 83.2949L717.199 82.9199H720.34V83.3301C720.254 85.0098 719.645 86.3926 718.512 87.4785C717.379 88.5645 715.777 89.1074 713.707 89.1074C711.535 89.1074 709.781 88.4004 708.445 86.9863C707.117 85.5723 706.453 83.502 706.453 80.7754ZM722.777 71.7285H725.93V78.0449H728.953C730.953 78.0449 732.434 78.5371 733.395 79.5215C734.355 80.5059 734.836 81.7988 734.836 83.4004C734.836 85.0254 734.352 86.3301 733.383 87.3145C732.414 88.2988 730.934 88.791 728.941 88.791H722.777V71.7285ZM725.93 80.459V86.377H728.672C729.766 86.377 730.539 86.1035 730.992 85.5566C731.453 85.002 731.684 84.2832 731.684 83.4004C731.684 82.541 731.453 81.8379 730.992 81.291C730.539 80.7363 729.766 80.459 728.672 80.459H725.93ZM736.594 88.791H739.758V71.7285H736.594V88.791ZM748.91 88.791V71.7285H755.016C756.797 71.7285 758.18 72.0957 759.164 72.8301C760.156 73.5566 760.652 74.6777 760.652 76.1934C760.652 77.1465 760.43 77.9277 759.984 78.5371C759.547 79.1465 759 79.5645 758.344 79.791V79.8379C759.156 80.0645 759.824 80.5215 760.348 81.209C760.871 81.8887 761.133 82.791 761.133 83.916C761.133 85.4629 760.605 86.6621 759.551 87.5137C758.496 88.3652 757.094 88.791 755.344 88.791H748.91ZM752.016 86.5059H755.145C756.121 86.5059 756.836 86.2598 757.289 85.7676C757.75 85.2676 757.98 84.5996 757.98 83.7637C757.98 82.9199 757.75 82.252 757.289 81.7598C756.836 81.2676 756.121 81.0215 755.145 81.0215H752.016V86.5059ZM752.016 78.9004H754.828C755.789 78.9004 756.484 78.6855 756.914 78.2559C757.344 77.8184 757.559 77.2129 757.559 76.4395C757.559 75.666 757.344 75.0762 756.914 74.6699C756.484 74.2559 755.789 74.0488 754.828 74.0488H752.016V78.9004ZM763.816 88.791V71.7285H767.941L772.207 83.2598C772.301 83.5176 772.383 83.7715 772.453 84.0215C772.531 84.2637 772.594 84.5215 772.641 84.7949H772.723C772.777 84.5215 772.84 84.2637 772.91 84.0215C772.988 83.7715 773.07 83.5176 773.156 83.2598L777.434 71.7285H781.605V88.791H778.488V77.4707C778.488 77.2129 778.492 76.9277 778.5 76.6152C778.516 76.3027 778.535 76.0215 778.559 75.7715H778.477C778.43 76.0293 778.363 76.3145 778.277 76.627C778.199 76.9316 778.113 77.2129 778.02 77.4707L773.871 88.791H771.188L767.039 77.4707C766.945 77.2129 766.855 76.9238 766.77 76.6035C766.684 76.2754 766.625 75.998 766.594 75.7715H766.5C766.523 75.998 766.539 76.2754 766.547 76.6035C766.562 76.9238 766.57 77.2129 766.57 77.4707V88.791H763.816ZM785.051 88.791V71.7285H796.031V74.2012H788.168V78.8301H794.965V81.2207H788.168V86.3418H796.16V88.791H785.051ZM797.906 80.7754V79.7441C797.906 76.9941 798.582 74.9199 799.934 73.5215C801.285 72.1152 803.027 71.4121 805.16 71.4121C807.223 71.4121 808.844 71.9512 810.023 73.0293C811.203 74.1074 811.793 75.5137 811.793 77.248V77.6113H808.652V77.166C808.652 76.1348 808.363 75.3262 807.785 74.7402C807.207 74.1465 806.328 73.8496 805.148 73.8496C803.953 73.8496 802.988 74.2871 802.254 75.1621C801.527 76.0371 801.164 77.4355 801.164 79.3574V81.1621C801.164 82.9668 801.527 84.3379 802.254 85.2754C802.98 86.2129 803.957 86.6816 805.184 86.6816C806.309 86.6816 807.152 86.377 807.715 85.7676C808.277 85.1582 808.586 84.334 808.641 83.2949L808.652 82.9199H811.793V83.3301C811.707 85.0098 811.098 86.3926 809.965 87.4785C808.832 88.5645 807.23 89.1074 805.16 89.1074C802.988 89.1074 801.234 88.4004 799.898 86.9863C798.57 85.5723 797.906 83.502 797.906 80.7754ZM812.742 74.2012V71.7285H826.055V74.2012H820.992V88.791H817.816V74.2012H812.742ZM828.012 88.791V71.7285H838.992V74.2012H831.129V78.8301H837.926V81.2207H831.129V86.3418H839.121V88.791H828.012Z" fill="white"/>
<path d="M520.415 117.791V104.994H522.401V110.391H528.352V104.994H530.338V117.791H528.352V111.99H522.401V117.791H520.415ZM532.447 113.353V113.071C532.447 111.683 532.84 110.555 533.625 109.688C534.416 108.82 535.447 108.387 536.719 108.387C537.996 108.387 538.983 108.794 539.681 109.608C540.384 110.417 540.735 111.521 540.735 112.922V113.66H533.678V112.28H538.811V112.087C538.811 111.478 538.635 110.959 538.283 110.531C537.938 110.098 537.431 109.881 536.763 109.881C535.978 109.881 535.386 110.177 534.987 110.769C534.595 111.36 534.398 112.11 534.398 113.019V113.396C534.398 114.305 534.606 115.058 535.022 115.655C535.444 116.247 536.083 116.543 536.938 116.543C537.489 116.543 537.964 116.42 538.362 116.174C538.761 115.922 539.083 115.626 539.329 115.286L540.639 116.209C540.352 116.689 539.892 117.117 539.259 117.492C538.626 117.861 537.858 118.046 536.956 118.046C535.521 118.046 534.41 117.612 533.625 116.745C532.84 115.878 532.447 114.747 532.447 113.353ZM549.56 120.155V117.791H543.223V120.155H541.447V116.306H551.335V120.155H549.56ZM544.945 110.127L544.805 113.186C544.77 114.018 544.711 114.68 544.629 115.172C544.553 115.658 544.436 116.086 544.277 116.455H542.326C542.52 116.168 542.681 115.752 542.81 115.207C542.938 114.656 543.026 113.865 543.073 112.834L543.258 108.642H549.99V117.791H548.057V110.127H544.945ZM552.188 113.353V113.071C552.188 111.677 552.592 110.549 553.4 109.688C554.215 108.82 555.293 108.387 556.635 108.387C557.977 108.387 559.052 108.82 559.86 109.688C560.675 110.549 561.082 111.677 561.082 113.071V113.353C561.082 114.753 560.675 115.887 559.86 116.754C559.052 117.615 557.977 118.046 556.635 118.046C555.293 118.046 554.215 117.615 553.4 116.754C552.592 115.887 552.188 114.753 552.188 113.353ZM554.165 113.027V113.405C554.165 114.319 554.373 115.069 554.789 115.655C555.211 116.235 555.826 116.525 556.635 116.525C557.443 116.525 558.056 116.235 558.472 115.655C558.894 115.069 559.104 114.319 559.104 113.405V113.027C559.104 112.113 558.894 111.366 558.472 110.786C558.056 110.206 557.443 109.916 556.635 109.916C555.826 109.916 555.211 110.206 554.789 110.786C554.373 111.366 554.165 112.113 554.165 113.027ZM562.989 117.791V108.642H567.164C568.225 108.642 569.042 108.844 569.616 109.248C570.19 109.646 570.478 110.244 570.478 111.041C570.478 111.58 570.319 112.022 570.003 112.368C569.687 112.714 569.262 112.942 568.729 113.054V113.08C569.379 113.18 569.886 113.408 570.249 113.766C570.618 114.123 570.803 114.592 570.803 115.172C570.803 115.998 570.504 116.643 569.906 117.105C569.314 117.562 568.497 117.791 567.454 117.791H562.989ZM564.905 112.456H567.006C567.545 112.456 567.932 112.345 568.166 112.122C568.406 111.894 568.526 111.583 568.526 111.19C568.526 110.81 568.406 110.517 568.166 110.312C567.932 110.106 567.545 110.004 567.006 110.004H564.905V112.456ZM564.905 116.429H567.261C567.812 116.429 568.216 116.309 568.474 116.068C568.731 115.828 568.86 115.506 568.86 115.102C568.86 114.715 568.731 114.404 568.474 114.17C568.222 113.93 567.817 113.81 567.261 113.81H564.905V116.429ZM572.35 113.353V113.071C572.35 111.677 572.754 110.549 573.562 109.688C574.377 108.82 575.455 108.387 576.797 108.387C578.139 108.387 579.214 108.82 580.022 109.688C580.837 110.549 581.244 111.677 581.244 113.071V113.353C581.244 114.753 580.837 115.887 580.022 116.754C579.214 117.615 578.139 118.046 576.797 118.046C575.455 118.046 574.377 117.615 573.562 116.754C572.754 115.887 572.35 114.753 572.35 113.353ZM574.327 113.027V113.405C574.327 114.319 574.535 115.069 574.951 115.655C575.373 116.235 575.988 116.525 576.797 116.525C577.605 116.525 578.218 116.235 578.634 115.655C579.056 115.069 579.267 114.319 579.267 113.405V113.027C579.267 112.113 579.056 111.366 578.634 110.786C578.218 110.206 577.605 109.916 576.797 109.916C575.988 109.916 575.373 110.206 574.951 110.786C574.535 111.366 574.327 112.113 574.327 113.027ZM585.753 110.127L585.595 113.59C585.53 115.166 585.322 116.294 584.971 116.974C584.619 117.647 583.978 117.984 583.046 117.984C582.847 117.984 582.659 117.97 582.483 117.94C582.308 117.917 582.164 117.879 582.053 117.826V116.244C582.146 116.285 582.243 116.314 582.343 116.332C582.448 116.344 582.562 116.35 582.686 116.35C583.125 116.35 583.418 116.136 583.564 115.708C583.711 115.274 583.811 114.489 583.863 113.353L584.065 108.642H590.728V117.791H588.803V110.127H585.753ZM595.113 108.642V111.718H597.205C598.354 111.718 599.232 111.99 599.842 112.535C600.457 113.074 600.765 113.812 600.765 114.75C600.765 115.688 600.457 116.429 599.842 116.974C599.232 117.519 598.354 117.791 597.205 117.791H593.188V108.642H595.113ZM597.038 113.142H595.113V116.367H597.038C597.694 116.367 598.157 116.218 598.427 115.919C598.696 115.614 598.831 115.219 598.831 114.732C598.831 114.264 598.696 113.883 598.427 113.59C598.157 113.291 597.694 113.142 597.038 113.142ZM602.487 108.642H604.412V112.377H608.209V108.642H610.143V117.791H608.209V113.862H604.412V117.791H602.487V108.642ZM614.52 108.642V111.718H616.611C617.76 111.718 618.639 111.99 619.248 112.535C619.863 113.074 620.171 113.812 620.171 114.75C620.171 115.688 619.863 116.429 619.248 116.974C618.639 117.519 617.76 117.791 616.611 117.791H612.595V108.642H614.52ZM616.444 113.142H614.52V116.367H616.444C617.101 116.367 617.563 116.218 617.833 115.919C618.103 115.614 618.237 115.219 618.237 114.732C618.237 114.264 618.103 113.883 617.833 113.59C617.563 113.291 617.101 113.142 616.444 113.142ZM621.305 117.791V108.642H623.247V117.791H621.305ZM629.997 121.465V108.642H631.772L631.834 109.793H631.878C632.101 109.424 632.452 109.11 632.933 108.853C633.413 108.595 633.961 108.466 634.576 108.466C635.742 108.466 636.674 108.894 637.371 109.749C638.074 110.604 638.426 111.712 638.426 113.071V113.353C638.426 114.712 638.077 115.822 637.38 116.684C636.683 117.539 635.757 117.967 634.603 117.967C633.981 117.967 633.442 117.858 632.985 117.642C632.534 117.425 632.18 117.132 631.922 116.763V121.465H629.997ZM631.922 114.97C632.092 115.356 632.367 115.699 632.748 115.998C633.129 116.297 633.589 116.446 634.128 116.446C634.925 116.446 635.511 116.162 635.886 115.594C636.267 115.02 636.457 114.287 636.457 113.396V113.027C636.457 112.137 636.267 111.407 635.886 110.839C635.511 110.271 634.925 109.986 634.128 109.986C633.583 109.986 633.12 110.136 632.739 110.435C632.364 110.728 632.092 111.064 631.922 111.445V114.97ZM639.841 115.102C639.841 114.152 640.213 113.42 640.957 112.904C641.707 112.389 642.662 112.128 643.822 112.122H645.809V111.516C645.809 111.012 645.677 110.604 645.413 110.294C645.155 109.978 644.704 109.819 644.06 109.819C643.421 109.819 642.961 109.951 642.68 110.215C642.404 110.473 642.267 110.78 642.267 111.138V111.226H640.359V111.138C640.359 110.376 640.702 109.729 641.388 109.195C642.073 108.656 642.987 108.387 644.13 108.387C645.272 108.387 646.16 108.647 646.793 109.169C647.426 109.685 647.742 110.47 647.742 111.524V115.699C647.742 116.074 647.771 116.432 647.83 116.771C647.895 117.105 647.979 117.398 648.085 117.65V117.791H646.213C646.131 117.65 646.058 117.466 645.993 117.237C645.935 117.003 645.894 116.774 645.87 116.552C645.671 116.921 645.325 117.249 644.833 117.536C644.347 117.817 643.726 117.958 642.97 117.958C642.085 117.958 641.341 117.718 640.737 117.237C640.14 116.751 639.841 116.039 639.841 115.102ZM641.774 114.97C641.774 115.456 641.912 115.84 642.188 116.121C642.469 116.396 642.905 116.534 643.497 116.534C644.106 116.534 644.643 116.329 645.105 115.919C645.574 115.509 645.809 115.058 645.809 114.565V113.405H644.077C643.31 113.405 642.732 113.546 642.346 113.827C641.965 114.103 641.774 114.483 641.774 114.97ZM651.688 113.247V113.52C651.688 114.404 651.896 115.128 652.312 115.69C652.729 116.247 653.344 116.525 654.158 116.525C654.979 116.525 655.597 116.247 656.013 115.69C656.429 115.128 656.637 114.404 656.637 113.52V113.247C656.637 112.374 656.429 111.659 656.013 111.103C655.597 110.546 654.981 110.268 654.167 110.268C653.347 110.268 652.729 110.546 652.312 111.103C651.896 111.659 651.688 112.374 651.688 113.247ZM654.659 108.747C655.884 108.747 656.848 109.169 657.551 110.013C658.254 110.856 658.605 111.932 658.605 113.238V113.52C658.605 114.861 658.198 115.951 657.384 116.789C656.575 117.627 655.503 118.046 654.167 118.046C652.778 118.046 651.688 117.627 650.897 116.789C650.112 115.945 649.72 114.565 649.72 112.649V112.122C649.72 110.019 650.077 108.398 650.792 107.262C651.507 106.119 652.793 105.407 654.65 105.126C655.629 104.979 656.194 104.851 656.347 104.739C656.505 104.628 656.599 104.496 656.628 104.344H658.351C658.292 105.053 658.04 105.595 657.595 105.97C657.149 106.339 656.303 106.605 655.055 106.77C653.625 106.963 652.655 107.391 652.146 108.053C651.636 108.715 651.334 109.6 651.24 110.707H651.337C651.63 110.098 652.061 109.62 652.629 109.274C653.203 108.923 653.88 108.747 654.659 108.747ZM659.994 113.353V113.071C659.994 111.677 660.398 110.549 661.207 109.688C662.021 108.82 663.1 108.387 664.441 108.387C665.783 108.387 666.858 108.82 667.667 109.688C668.481 110.549 668.889 111.677 668.889 113.071V113.353C668.889 114.753 668.481 115.887 667.667 116.754C666.858 117.615 665.783 118.046 664.441 118.046C663.1 118.046 662.021 117.615 661.207 116.754C660.398 115.887 659.994 114.753 659.994 113.353ZM661.972 113.027V113.405C661.972 114.319 662.18 115.069 662.596 115.655C663.018 116.235 663.633 116.525 664.441 116.525C665.25 116.525 665.862 116.235 666.278 115.655C666.7 115.069 666.911 114.319 666.911 113.405V113.027C666.911 112.113 666.7 111.366 666.278 110.786C665.862 110.206 665.25 109.916 664.441 109.916C663.633 109.916 663.018 110.206 662.596 110.786C662.18 111.366 661.972 112.113 661.972 113.027ZM669.838 110.127V108.642H677.44V110.127H674.602V117.791H672.677V110.127H669.838ZM678.398 113.353V113.071C678.398 111.677 678.803 110.549 679.611 109.688C680.426 108.82 681.504 108.387 682.846 108.387C684.188 108.387 685.263 108.82 686.071 109.688C686.886 110.549 687.293 111.677 687.293 113.071V113.353C687.293 114.753 686.886 115.887 686.071 116.754C685.263 117.615 684.188 118.046 682.846 118.046C681.504 118.046 680.426 117.615 679.611 116.754C678.803 115.887 678.398 114.753 678.398 113.353ZM680.376 113.027V113.405C680.376 114.319 680.584 115.069 681 115.655C681.422 116.235 682.037 116.525 682.846 116.525C683.654 116.525 684.267 116.235 684.683 115.655C685.104 115.069 685.315 114.319 685.315 113.405V113.027C685.315 112.113 685.104 111.366 684.683 110.786C684.267 110.206 683.654 109.916 682.846 109.916C682.037 109.916 681.422 110.206 681 110.786C680.584 111.366 680.376 112.113 680.376 113.027ZM689.2 117.791V108.642H691.107V113.941C691.107 114.123 691.104 114.328 691.099 114.557C691.099 114.779 691.09 114.979 691.072 115.154L691.16 115.163C691.242 115.005 691.333 114.841 691.433 114.671C691.532 114.501 691.641 114.313 691.758 114.108L695.08 108.642H697.022V117.791H695.115V112.491C695.115 112.31 695.118 112.104 695.124 111.876C695.13 111.642 695.139 111.434 695.15 111.252H695.036C694.96 111.41 694.875 111.577 694.781 111.753C694.688 111.929 694.579 112.119 694.456 112.324L691.143 117.791H689.2ZM693.12 105.873C693.53 105.873 693.876 105.756 694.157 105.521C694.438 105.281 694.658 104.897 694.816 104.37L696.161 105.091C695.892 105.835 695.487 106.377 694.948 106.717C694.409 107.051 693.8 107.218 693.12 107.218C692.435 107.218 691.825 107.054 691.292 106.726C690.765 106.397 690.357 105.853 690.07 105.091L691.45 104.344C691.614 104.912 691.831 105.311 692.101 105.539C692.37 105.762 692.71 105.873 693.12 105.873ZM705.284 113.247V113.52C705.284 114.404 705.492 115.128 705.908 115.69C706.324 116.247 706.939 116.525 707.754 116.525C708.574 116.525 709.192 116.247 709.608 115.69C710.024 115.128 710.232 114.404 710.232 113.52V113.247C710.232 112.374 710.024 111.659 709.608 111.103C709.192 110.546 708.577 110.268 707.763 110.268C706.942 110.268 706.324 110.546 705.908 111.103C705.492 111.659 705.284 112.374 705.284 113.247ZM708.255 108.747C709.479 108.747 710.443 109.169 711.146 110.013C711.85 110.856 712.201 111.932 712.201 113.238V113.52C712.201 114.861 711.794 115.951 710.979 116.789C710.171 117.627 709.099 118.046 707.763 118.046C706.374 118.046 705.284 117.627 704.493 116.789C703.708 115.945 703.315 114.565 703.315 112.649V112.122C703.315 110.019 703.673 108.398 704.388 107.262C705.103 106.119 706.389 105.407 708.246 105.126C709.225 104.979 709.79 104.851 709.942 104.739C710.101 104.628 710.194 104.496 710.224 104.344H711.946C711.888 105.053 711.636 105.595 711.19 105.97C710.745 106.339 709.898 106.605 708.65 106.77C707.221 106.963 706.251 107.391 705.741 108.053C705.231 108.715 704.93 109.6 704.836 110.707H704.933C705.226 110.098 705.656 109.62 706.225 109.274C706.799 108.923 707.476 108.747 708.255 108.747ZM713.59 113.353V113.071C713.59 111.677 713.994 110.549 714.803 109.688C715.617 108.82 716.695 108.387 718.037 108.387C719.379 108.387 720.454 108.82 721.263 109.688C722.077 110.549 722.484 111.677 722.484 113.071V113.353C722.484 114.753 722.077 115.887 721.263 116.754C720.454 117.615 719.379 118.046 718.037 118.046C716.695 118.046 715.617 117.615 714.803 116.754C713.994 115.887 713.59 114.753 713.59 113.353ZM715.567 113.027V113.405C715.567 114.319 715.775 115.069 716.191 115.655C716.613 116.235 717.229 116.525 718.037 116.525C718.846 116.525 719.458 116.235 719.874 115.655C720.296 115.069 720.507 114.319 720.507 113.405V113.027C720.507 112.113 720.296 111.366 719.874 110.786C719.458 110.206 718.846 109.916 718.037 109.916C717.229 109.916 716.613 110.206 716.191 110.786C715.775 111.366 715.567 112.113 715.567 113.027ZM726.993 110.127L726.835 113.59C726.771 115.166 726.562 116.294 726.211 116.974C725.859 117.647 725.218 117.984 724.286 117.984C724.087 117.984 723.899 117.97 723.724 117.94C723.548 117.917 723.404 117.879 723.293 117.826V116.244C723.387 116.285 723.483 116.314 723.583 116.332C723.688 116.344 723.803 116.35 723.926 116.35C724.365 116.35 724.658 116.136 724.805 115.708C724.951 115.274 725.051 114.489 725.104 113.353L725.306 108.642H731.968V117.791H730.043V110.127H726.993ZM736.354 108.642V111.718H738.445C739.594 111.718 740.473 111.99 741.082 112.535C741.697 113.074 742.005 113.812 742.005 114.75C742.005 115.688 741.697 116.429 741.082 116.974C740.473 117.519 739.594 117.791 738.445 117.791H734.429V108.642H736.354ZM738.278 113.142H736.354V116.367H738.278C738.935 116.367 739.397 116.218 739.667 115.919C739.937 115.614 740.071 115.219 740.071 114.732C740.071 114.264 739.937 113.883 739.667 113.59C739.397 113.291 738.935 113.142 738.278 113.142ZM743.728 108.642H745.652V112.377H749.449V108.642H751.383V117.791H749.449V113.862H745.652V117.791H743.728V108.642ZM753.835 117.791V108.642H755.742V113.941C755.742 114.123 755.739 114.328 755.733 114.557C755.733 114.779 755.725 114.979 755.707 115.154L755.795 115.163C755.877 115.005 755.968 114.841 756.067 114.671C756.167 114.501 756.275 114.313 756.393 114.108L759.715 108.642H761.657V117.791H759.75V112.491C759.75 112.31 759.753 112.104 759.759 111.876C759.765 111.642 759.773 111.434 759.785 111.252H759.671C759.595 111.41 759.51 111.577 759.416 111.753C759.322 111.929 759.214 112.119 759.091 112.324L755.777 117.791H753.835ZM771.229 120.155V117.791H764.101V108.642H766.025V116.306H769.734V108.642H771.668V116.306H773.013V120.155H771.229ZM776.326 108.642V111.718H778.418C779.566 111.718 780.445 111.99 781.055 112.535C781.67 113.074 781.978 113.812 781.978 114.75C781.978 115.688 781.67 116.429 781.055 116.974C780.445 117.519 779.566 117.791 778.418 117.791H774.401V108.642H776.326ZM778.251 113.142H776.326V116.367H778.251C778.907 116.367 779.37 116.218 779.64 115.919C779.909 115.614 780.044 115.219 780.044 114.732C780.044 114.264 779.909 113.883 779.64 113.59C779.37 113.291 778.907 113.142 778.251 113.142ZM783.111 117.791V108.642H785.054V117.791H783.111ZM789.079 116.815C789.079 116.499 789.188 116.227 789.404 115.998C789.621 115.77 789.929 115.655 790.327 115.655C790.731 115.655 791.039 115.77 791.25 115.998C791.467 116.227 791.575 116.499 791.575 116.815C791.575 117.138 791.467 117.413 791.25 117.642C791.039 117.87 790.731 117.984 790.327 117.984C789.929 117.984 789.621 117.87 789.404 117.642C789.188 117.413 789.079 117.138 789.079 116.815ZM786.855 108.308V108.079C786.855 107.071 787.189 106.277 787.857 105.697C788.531 105.111 789.437 104.818 790.573 104.818C791.716 104.818 792.615 105.12 793.271 105.724C793.934 106.321 794.265 107.13 794.265 108.149C794.265 108.946 794.06 109.638 793.649 110.224C793.239 110.804 792.806 111.287 792.349 111.674C791.862 112.096 791.555 112.494 791.426 112.869C791.303 113.244 791.241 113.628 791.241 114.021V114.117H789.29V114.021C789.29 113.306 789.387 112.726 789.58 112.28C789.773 111.829 790.154 111.334 790.723 110.795C791.209 110.338 791.593 109.928 791.874 109.564C792.155 109.201 792.296 108.741 792.296 108.185C792.296 107.616 792.152 107.177 791.865 106.866C791.584 106.55 791.15 106.392 790.564 106.392C789.979 106.392 789.536 106.541 789.237 106.84C788.938 107.133 788.789 107.555 788.789 108.105V108.308H786.855Z" fill="white"/>
<rect x="961" y="49" width="250" height="57" rx="10" fill="white"/>
<path d="M1003.73 82.5V71.125H1005.83V75.8125H1010.74V71.125H1012.84V82.5H1010.74V77.4531H1005.83V82.5H1003.73ZM1014.7 80.0938C1014.7 79.2083 1015.05 78.5365 1015.73 78.0781C1016.42 77.6198 1017.29 77.388 1018.34 77.3828H1020.03V76.8906C1020.03 76.4792 1019.92 76.1484 1019.71 75.8984C1019.5 75.6432 1019.14 75.5156 1018.61 75.5156C1018.08 75.5156 1017.71 75.6198 1017.48 75.8281C1017.27 76.0365 1017.16 76.2891 1017.16 76.5859V76.6875H1015.15V76.5859C1015.15 75.8776 1015.47 75.2839 1016.12 74.8047C1016.78 74.3255 1017.63 74.0859 1018.69 74.0859C1019.75 74.0859 1020.58 74.3177 1021.17 74.7812C1021.77 75.2396 1022.06 75.9453 1022.06 76.8984V80.6484C1022.06 80.9818 1022.09 81.2995 1022.15 81.6016C1022.21 81.8984 1022.28 82.1562 1022.38 82.375V82.5H1020.39C1020.33 82.375 1020.27 82.2135 1020.22 82.0156C1020.17 81.8177 1020.13 81.6224 1020.11 81.4297C1019.94 81.7474 1019.64 82.0312 1019.2 82.2812C1018.75 82.526 1018.19 82.6484 1017.52 82.6484C1016.72 82.6484 1016.06 82.4349 1015.52 82.0078C1014.97 81.5755 1014.7 80.9375 1014.7 80.0938ZM1016.73 79.9297C1016.73 80.3255 1016.85 80.6406 1017.08 80.875C1017.31 81.1094 1017.67 81.2266 1018.16 81.2266C1018.67 81.2266 1019.11 81.0599 1019.48 80.7266C1019.85 80.388 1020.03 80.0026 1020.03 79.5703V78.6562H1018.62C1017.99 78.6562 1017.52 78.7682 1017.2 78.9922C1016.89 79.2161 1016.73 79.5286 1016.73 79.9297ZM1024.17 74.3125H1031.27V82.5H1029.23V75.8516H1026.2V82.5H1024.17V74.3125ZM1033.36 82.5V74.3125H1035.38V78.6719C1035.38 78.8333 1035.37 79.0234 1035.37 79.2422C1035.36 79.4609 1035.35 79.6458 1035.34 79.7969L1035.41 79.8047C1035.49 79.6693 1035.57 79.5208 1035.66 79.3594C1035.74 79.1979 1035.85 79.0208 1035.96 78.8281L1038.65 74.3125H1040.69V82.5H1038.67V78.1172C1038.67 77.9609 1038.67 77.776 1038.68 77.5625C1038.68 77.3438 1038.69 77.1562 1038.7 77H1038.6C1038.54 77.1354 1038.46 77.2839 1038.38 77.4453C1038.29 77.6016 1038.2 77.776 1038.09 77.9688L1035.4 82.5H1033.36ZM1042.33 78.5312V78.2812C1042.33 77.0052 1042.69 75.987 1043.42 75.2266C1044.15 74.4609 1045.13 74.0781 1046.36 74.0781C1047.52 74.0781 1048.4 74.375 1049.01 74.9688C1049.62 75.5573 1049.94 76.2474 1049.97 77.0391L1049.98 77.1484H1047.99V77.0703C1047.99 76.6641 1047.86 76.3229 1047.59 76.0469C1047.32 75.7656 1046.91 75.625 1046.35 75.625C1045.7 75.625 1045.21 75.862 1044.89 76.3359C1044.57 76.8099 1044.41 77.4297 1044.41 78.1953V78.6172C1044.41 79.3776 1044.57 79.9974 1044.88 80.4766C1045.2 80.9557 1045.69 81.1953 1046.35 81.1953C1046.94 81.1953 1047.36 81.0495 1047.61 80.7578C1047.86 80.4661 1047.99 80.125 1047.99 79.7344V79.6641H1049.97V79.7422C1049.97 80.5339 1049.66 81.2318 1049.03 81.8359C1048.41 82.4349 1047.52 82.7344 1046.37 82.7344C1045.14 82.7344 1044.16 82.3516 1043.42 81.5859C1042.69 80.8203 1042.33 79.8021 1042.33 78.5312ZM1051.02 80.0938C1051.02 79.2083 1051.36 78.5365 1052.05 78.0781C1052.73 77.6198 1053.6 77.388 1054.66 77.3828H1056.34V76.8906C1056.34 76.4792 1056.24 76.1484 1056.02 75.8984C1055.82 75.6432 1055.45 75.5156 1054.92 75.5156C1054.4 75.5156 1054.02 75.6198 1053.8 75.8281C1053.58 76.0365 1053.47 76.2891 1053.47 76.5859V76.6875H1051.46V76.5859C1051.46 75.8776 1051.79 75.2839 1052.44 74.8047C1053.09 74.3255 1053.94 74.0859 1055 74.0859C1056.06 74.0859 1056.89 74.3177 1057.48 74.7812C1058.08 75.2396 1058.38 75.9453 1058.38 76.8984V80.6484C1058.38 80.9818 1058.4 81.2995 1058.46 81.6016C1058.52 81.8984 1058.6 82.1562 1058.7 82.375V82.5H1056.7C1056.64 82.375 1056.58 82.2135 1056.53 82.0156C1056.48 81.8177 1056.44 81.6224 1056.42 81.4297C1056.26 81.7474 1055.95 82.0312 1055.51 82.2812C1055.07 82.526 1054.51 82.6484 1053.83 82.6484C1053.04 82.6484 1052.37 82.4349 1051.83 82.0078C1051.29 81.5755 1051.02 80.9375 1051.02 80.0938ZM1053.05 79.9297C1053.05 80.3255 1053.16 80.6406 1053.39 80.875C1053.62 81.1094 1053.98 81.2266 1054.47 81.2266C1054.98 81.2266 1055.42 81.0599 1055.79 80.7266C1056.16 80.388 1056.34 80.0026 1056.34 79.5703V78.6562H1054.94C1054.3 78.6562 1053.83 78.7682 1053.52 78.9922C1053.2 79.2161 1053.05 79.5286 1053.05 79.9297ZM1059.67 75.8516V74.3125H1066.69V75.8516H1064.2V82.5H1062.16V75.8516H1059.67ZM1070 74.3125V77H1071.84C1072.88 77 1073.67 77.2474 1074.22 77.7422C1074.77 78.2318 1075.04 78.9036 1075.04 79.7578C1075.04 80.6224 1074.77 81.2969 1074.22 81.7812C1073.67 82.2604 1072.88 82.5 1071.84 82.5H1067.97V74.3125H1070ZM1071.55 78.4375H1070V81.0625H1071.55C1072.07 81.0625 1072.45 80.9453 1072.66 80.7109C1072.89 80.4714 1073 80.1458 1073 79.7344C1073 79.3438 1072.89 79.0312 1072.67 78.7969C1072.45 78.5573 1072.08 78.4375 1071.55 78.4375ZM1079.94 78.5312V78.2812C1079.94 77.0104 1080.31 75.9922 1081.06 75.2266C1081.82 74.4609 1082.81 74.0781 1084.04 74.0781C1085.27 74.0781 1086.26 74.4609 1087.01 75.2266C1087.76 75.9922 1088.14 77.0104 1088.14 78.2812V78.5312C1088.14 79.7969 1087.76 80.8151 1087.01 81.5859C1086.26 82.3516 1085.27 82.7344 1084.04 82.7344C1082.81 82.7344 1081.82 82.3516 1081.06 81.5859C1080.31 80.8151 1079.94 79.7969 1079.94 78.5312ZM1082.02 78.1953V78.6172C1082.02 79.4036 1082.19 80.026 1082.53 80.4844C1082.88 80.9375 1083.38 81.1641 1084.04 81.1641C1084.7 81.1641 1085.2 80.9375 1085.54 80.4844C1085.89 80.026 1086.06 79.401 1086.06 78.6094V78.1953C1086.06 77.4089 1085.89 76.7891 1085.54 76.3359C1085.19 75.8776 1084.69 75.6484 1084.04 75.6484C1083.39 75.6484 1082.89 75.8776 1082.54 76.3359C1082.19 76.7891 1082.02 77.4089 1082.02 78.1953ZM1093.67 74.3125H1100.77V82.5H1098.73V75.8516H1095.7V82.5H1093.67V74.3125ZM1102.86 85.7578V74.3125H1104.75L1104.8 75.2891H1104.84C1105.03 74.9661 1105.33 74.6953 1105.75 74.4766C1106.18 74.2578 1106.66 74.1484 1107.2 74.1484C1108.24 74.1484 1109.08 74.5286 1109.72 75.2891C1110.35 76.0443 1110.67 77.0417 1110.67 78.2812V78.5312C1110.67 79.7604 1110.36 80.7552 1109.73 81.5156C1109.1 82.276 1108.27 82.6562 1107.24 82.6562C1106.71 82.6562 1106.24 82.5651 1105.83 82.3828C1105.42 82.2005 1105.11 81.9505 1104.89 81.6328V85.7578H1102.86ZM1104.89 79.875C1105.03 80.1979 1105.25 80.4818 1105.57 80.7266C1105.89 80.9714 1106.28 81.0938 1106.72 81.0938C1107.36 81.0938 1107.83 80.8698 1108.14 80.4219C1108.45 79.9688 1108.6 79.3646 1108.6 78.6094V78.1953C1108.6 77.4453 1108.45 76.8464 1108.14 76.3984C1107.83 75.9453 1107.36 75.7188 1106.71 75.7188C1106.26 75.7188 1105.88 75.8385 1105.56 76.0781C1105.26 76.3177 1105.03 76.5964 1104.89 76.9141V79.875ZM1111.86 78.5312V78.2812C1111.86 77.0104 1112.23 75.9922 1112.98 75.2266C1113.74 74.4609 1114.73 74.0781 1115.96 74.0781C1117.19 74.0781 1118.18 74.4609 1118.93 75.2266C1119.68 75.9922 1120.06 77.0104 1120.06 78.2812V78.5312C1120.06 79.7969 1119.68 80.8151 1118.93 81.5859C1118.18 82.3516 1117.19 82.7344 1115.96 82.7344C1114.73 82.7344 1113.74 82.3516 1112.98 81.5859C1112.23 80.8151 1111.86 79.7969 1111.86 78.5312ZM1113.94 78.1953V78.6172C1113.94 79.4036 1114.11 80.026 1114.45 80.4844C1114.8 80.9375 1115.3 81.1641 1115.96 81.1641C1116.62 81.1641 1117.12 80.9375 1117.46 80.4844C1117.81 80.026 1117.98 79.401 1117.98 78.6094V78.1953C1117.98 77.4089 1117.81 76.7891 1117.46 76.3359C1117.11 75.8776 1116.61 75.6484 1115.96 75.6484C1115.31 75.6484 1114.81 75.8776 1114.46 76.3359C1114.11 76.7891 1113.94 77.4089 1113.94 78.1953ZM1123.39 78.4375V78.6875C1123.39 79.4531 1123.56 80.0573 1123.9 80.5C1124.24 80.9427 1124.74 81.1641 1125.41 81.1641C1126.09 81.1641 1126.59 80.9427 1126.93 80.5C1127.27 80.0573 1127.44 79.4531 1127.44 78.6875V78.4375C1127.44 77.6979 1127.27 77.1068 1126.93 76.6641C1126.59 76.2214 1126.09 76 1125.42 76C1124.75 76 1124.24 76.2214 1123.9 76.6641C1123.56 77.1068 1123.39 77.6979 1123.39 78.4375ZM1125.95 74.4453C1127.06 74.4453 1127.93 74.8177 1128.57 75.5625C1129.21 76.3073 1129.52 77.2656 1129.52 78.4375V78.6875C1129.52 79.8958 1129.15 80.8724 1128.39 81.6172C1127.64 82.362 1126.65 82.7344 1125.42 82.7344C1124.15 82.7344 1123.14 82.362 1122.41 81.6172C1121.68 80.8672 1121.31 79.6641 1121.31 78.0078V77.2969C1121.31 75.4583 1121.64 74.0443 1122.3 73.0547C1122.95 72.0599 1124.09 71.4401 1125.7 71.1953C1126.56 71.0651 1127.06 70.9557 1127.2 70.8672C1127.33 70.7734 1127.41 70.6589 1127.44 70.5234H1129.28C1129.23 71.237 1129 71.7682 1128.59 72.1172C1128.17 72.4609 1127.39 72.7109 1126.24 72.8672C1125.01 73.0339 1124.17 73.3828 1123.73 73.9141C1123.28 74.4453 1123.02 75.1719 1122.95 76.0938L1123.03 76.0859C1123.3 75.5755 1123.68 75.1745 1124.18 74.8828C1124.68 74.5911 1125.28 74.4453 1125.95 74.4453ZM1133.77 75.8516L1133.65 78.7188C1133.59 80.151 1133.39 81.1693 1133.05 81.7734C1132.71 82.3776 1132.09 82.6797 1131.2 82.6797C1131.01 82.6797 1130.83 82.6667 1130.66 82.6406C1130.49 82.6146 1130.35 82.5781 1130.24 82.5312V80.9062C1130.33 80.9427 1130.42 80.9688 1130.51 80.9844C1130.6 80.9948 1130.7 81 1130.8 81C1131.19 81 1131.45 80.8203 1131.58 80.4609C1131.71 80.1016 1131.79 79.4427 1131.84 78.4844L1132.01 74.3125H1138.3V82.5H1136.27V75.8516H1133.77ZM1139.97 78.5312V78.2812C1139.97 77.026 1140.34 76.013 1141.07 75.2422C1141.8 74.4661 1142.76 74.0781 1143.92 74.0781C1145.09 74.0781 1146 74.4401 1146.66 75.1641C1147.31 75.888 1147.64 76.8802 1147.64 78.1406V78.8906H1141.3V77.5469H1145.62V77.375C1145.62 76.875 1145.48 76.4531 1145.19 76.1094C1144.9 75.7656 1144.48 75.5938 1143.94 75.5938C1143.3 75.5938 1142.81 75.8333 1142.48 76.3125C1142.16 76.7917 1142 77.4167 1142 78.1875V78.6094C1142 79.375 1142.17 79.9974 1142.52 80.4766C1142.87 80.9557 1143.4 81.1953 1144.09 81.1953C1144.56 81.1953 1144.96 81.0859 1145.29 80.8672C1145.63 80.6484 1145.9 80.3932 1146.11 80.1016L1147.52 81.0469C1147.26 81.5104 1146.84 81.9089 1146.24 82.2422C1145.65 82.5703 1144.95 82.7344 1144.12 82.7344C1142.81 82.7344 1141.79 82.349 1141.06 81.5781C1140.33 80.8021 1139.97 79.7865 1139.97 78.5312ZM1149.2 82.5V74.3125H1151.96L1153.85 79.1562C1153.97 79.4688 1154.04 79.6875 1154.07 79.8125C1154.11 79.9323 1154.14 80.0547 1154.16 80.1797H1154.23C1154.26 80.0547 1154.29 79.9323 1154.32 79.8125C1154.36 79.6927 1154.43 79.4792 1154.54 79.1719L1156.44 74.3125H1159.18V82.5H1157.2V77.4062C1157.2 77.0885 1157.2 76.8568 1157.2 76.7109C1157.21 76.5599 1157.22 76.4245 1157.23 76.3047H1157.16C1157.14 76.4245 1157.1 76.5573 1157.06 76.7031C1157.03 76.8438 1156.95 77.0703 1156.83 77.3828L1154.84 82.5H1153.3L1151.3 77.3594C1151.19 77.0833 1151.12 76.8698 1151.08 76.7188C1151.04 76.5625 1151 76.4245 1150.98 76.3047H1150.9C1150.9 76.4245 1150.91 76.5573 1150.92 76.7031C1150.93 76.8438 1150.94 77.0625 1150.94 77.3594V82.5H1149.2ZM1160.83 78.5312V78.2812C1160.83 77.026 1161.2 76.013 1161.93 75.2422C1162.66 74.4661 1163.61 74.0781 1164.78 74.0781C1165.95 74.0781 1166.86 74.4401 1167.52 75.1641C1168.17 75.888 1168.5 76.8802 1168.5 78.1406V78.8906H1162.16V77.5469H1166.48V77.375C1166.48 76.875 1166.34 76.4531 1166.05 76.1094C1165.76 75.7656 1165.34 75.5938 1164.8 75.5938C1164.16 75.5938 1163.67 75.8333 1163.34 76.3125C1163.02 76.7917 1162.86 77.4167 1162.86 78.1875V78.6094C1162.86 79.375 1163.03 79.9974 1163.38 80.4766C1163.73 80.9557 1164.26 81.1953 1164.95 81.1953C1165.42 81.1953 1165.82 81.0859 1166.15 80.8672C1166.49 80.6484 1166.76 80.3932 1166.97 80.1016L1168.38 81.0469C1168.12 81.5104 1167.7 81.9089 1167.1 82.2422C1166.51 82.5703 1165.8 82.7344 1164.98 82.7344C1163.67 82.7344 1162.65 82.349 1161.92 81.5781C1161.19 80.8021 1160.83 79.7865 1160.83 78.5312Z" fill="black"/>
<path d="M585.277 39.1934C582.881 39.7228 581.487 41.0463 580.707 43.5818C580.429 44.4873 580.303 48.1095 580.512 49.224C581.265 53.1944 583.466 54.8662 587.966 54.8662C589.164 54.8662 591.198 54.6015 592.451 54.2811C593.204 54.1 593.204 54.0025 592.507 52.1496C592.159 51.2162 591.922 50.7704 591.797 50.7843C591.685 50.7982 591.114 50.9097 590.543 51.0351C589.066 51.3694 587.032 51.3834 586.182 51.0629C584.97 50.5893 584.455 49.0568 584.58 46.2427C584.706 43.4425 585.458 42.6205 587.966 42.6205C588.579 42.6066 589.456 42.7041 589.916 42.8156C591.239 43.136 591.156 43.1778 592.006 41.4921C592.424 40.6562 592.772 39.9039 592.772 39.8342C592.772 39.6671 592.131 39.4581 590.696 39.1934C589.275 38.9426 586.489 38.9287 585.277 39.1934Z" fill="white"/>
<path d="M564.547 39.5834C564.505 39.6949 564.686 40.3357 564.951 41.0184C565.216 41.701 565.48 42.4115 565.536 42.6065C565.592 42.8016 565.884 43.6096 566.191 44.4176C567.055 46.6745 568.1 49.5583 569.172 52.5675C569.367 53.0969 569.618 53.7656 569.729 54.0303C569.925 54.49 569.911 54.5597 569.534 55.2841C568.308 57.6524 567.514 59.1292 567.403 59.2546C567.333 59.3242 567.278 59.4914 567.278 59.6307C567.278 59.8675 567.445 59.8815 569.437 59.8815H571.61L572.418 58.1679C573.756 55.3677 575.427 51.3972 576.653 48.1094C577.629 45.5043 579.398 40.1407 579.398 39.8342C579.398 39.5556 579.328 39.5416 577.378 39.5416H575.372L575.218 40.1267C575.051 40.7119 574.898 41.2273 574.188 43.5817C573.672 45.2674 572.237 49.1543 572.126 49.1543C572.084 49.1543 571.931 48.8617 571.805 48.4856C571.68 48.1234 571.485 47.6079 571.387 47.3432C571.29 47.0785 571.039 46.3819 570.83 45.8108C570.245 44.2086 570.12 43.8743 569.716 42.7458C569.507 42.1747 569.2 41.3527 569.061 40.9348C568.49 39.3466 568.713 39.472 566.539 39.4302C564.993 39.4023 564.617 39.4302 564.547 39.5834Z" fill="white"/>
<path d="M597.175 39.7088C597.133 39.8899 597.064 40.6143 597.022 41.3249C596.966 42.0493 596.91 42.7598 596.883 42.927C596.855 43.0941 596.799 43.6096 596.743 44.0693C596.688 44.5151 596.632 44.9888 596.604 45.1142C596.576 45.2256 596.492 45.8247 596.395 46.4377C596.186 47.8587 595.643 50.3803 595.183 52.0799C594.988 52.8043 594.793 53.6402 594.765 53.9328L594.695 54.4622L596.757 54.4204L598.833 54.3786L599 53.7517C599.084 53.4034 599.265 52.7765 599.376 52.3585C599.641 51.453 600.393 47.8169 600.505 46.9253C600.546 46.577 600.616 46.2008 600.644 46.0894C600.672 45.9779 600.742 45.4346 600.797 44.9052C600.839 44.3619 600.909 43.8325 600.923 43.7211C600.951 43.6096 600.978 43.4006 600.978 43.2613C600.992 43.0523 601.173 43.0245 602.734 43.0245H604.475L604.503 48.6946L604.545 54.3786H606.467H608.39L608.376 46.9949C608.376 41.3109 608.334 39.5974 608.195 39.5138C608.111 39.458 605.604 39.4023 602.636 39.4023H597.231L597.175 39.7088Z" fill="white"/>
<path d="M610.939 39.5834C610.911 39.681 610.966 39.9874 611.078 40.2521C611.189 40.5029 611.816 42.2304 612.471 44.0693C613.14 45.9083 613.767 47.6358 613.864 47.9005C613.976 48.1652 614.198 48.7642 614.366 49.224C614.909 50.7425 615.285 51.7595 615.954 53.5288L616.316 54.49L615.118 56.8026C614.463 58.0704 613.864 59.171 613.794 59.2546C613.725 59.3242 613.669 59.4914 613.669 59.6307C613.669 59.8675 613.822 59.8815 615.856 59.8536L618.044 59.8118L618.406 59.1013C619.256 57.3878 620.454 54.6851 621.122 52.9854C621.331 52.4421 621.61 51.7595 621.749 51.453C622.711 49.2658 625.789 40.3218 625.789 39.7088C625.789 39.5834 625.232 39.5416 623.769 39.5416H621.763L621.596 40.1268C620.913 42.6483 619.827 46.0755 619.214 47.6218C618.977 48.193 618.74 48.8199 618.656 49.015C618.517 49.3633 618.517 49.3493 618.322 48.806C618.002 47.9562 617.584 46.772 617.361 46.1591C617.263 45.8526 616.999 45.156 616.804 44.6266C616.595 44.0833 616.344 43.4006 616.246 43.0941C616.135 42.7877 615.884 42.0911 615.689 41.5617C615.494 41.0184 615.257 40.3636 615.174 40.0989C615.104 39.8342 614.965 39.5695 614.867 39.5138C614.784 39.458 613.878 39.4023 612.861 39.4023C611.468 39.4023 610.994 39.4441 610.939 39.5834Z" fill="white"/>
<path d="M628.199 39.4999C628.073 39.5417 628.032 41.2553 628.018 46.8278C628.018 50.8262 628.073 54.1836 628.129 54.2811C628.213 54.4065 628.714 54.4483 630.121 54.4205L631.988 54.3787L632.03 48.6947L632.058 43.0246H634.844C636.906 43.0246 637.644 42.9828 637.728 42.8435C638.02 42.3837 639.023 39.7368 638.954 39.5835C638.912 39.4442 637.756 39.4024 633.632 39.4163C630.734 39.4163 628.296 39.4581 628.199 39.4999Z" fill="white"/>
<path d="M650.35 39.486C650.211 39.5556 650.169 40.8234 650.169 45.1839V50.7983L649.473 50.9515C648.47 51.1744 646.77 51.1466 646.199 50.9097C645.934 50.7983 645.586 50.4918 645.447 50.241C644.973 49.4887 644.903 48.5971 644.889 43.4007L644.875 39.5417H642.925H640.975V44.6545C640.989 50.1574 641.058 50.854 641.699 52.2193C642.312 53.5149 643.343 54.3229 644.861 54.6712C646.631 55.0891 650.155 54.7827 652.886 53.9746L654 53.6542V46.5631V39.4721L652.259 39.4442C651.298 39.4303 650.434 39.4581 650.35 39.486Z" fill="white"/>
<path d="M539.415 39.1377C535.291 39.5277 533.703 41.6871 533.703 46.9392C533.703 52.6929 535.64 54.8662 540.752 54.8662C544.918 54.8662 547.008 53.4034 547.718 49.9763C547.969 48.7921 547.997 45.4764 547.788 44.2087C547.467 42.3697 546.562 40.8234 545.392 40.0989C544.054 39.277 541.839 38.9287 539.415 39.1377ZM542.243 42.6205C543.399 42.9409 543.748 43.8186 543.817 46.577C543.915 50.5614 543.344 51.4391 540.738 51.4391C538.454 51.4252 537.994 50.8679 537.813 47.8309C537.674 45.6297 537.938 43.9719 538.551 43.0524C538.886 42.5509 541.073 42.2862 542.243 42.6205Z" fill="white"/>
<path d="M555.546 39.1933C551.896 39.9178 550.266 42.5647 550.461 47.4825C550.531 49.4886 550.753 50.5195 551.353 51.7455C552.091 53.264 553.582 54.3368 555.504 54.7268C557.663 55.1866 563.097 54.6293 563.097 53.9745C563.097 53.877 562.86 53.1387 562.553 52.3446L562.024 50.8957L561.55 50.9096C561.286 50.9096 560.478 51.035 559.753 51.1604C558.834 51.3415 558.137 51.3833 557.468 51.3276C555.184 51.1186 554.585 50.1991 554.585 46.8835C554.585 45.8943 554.654 44.8495 554.738 44.5569C554.919 43.9021 555.448 43.2334 556.033 42.9269C556.702 42.5926 558.513 42.5369 559.934 42.8155C560.603 42.9548 561.174 43.0384 561.202 43.0105C561.369 42.8294 562.679 40.071 562.679 39.9038C562.679 39.6531 562.052 39.458 560.31 39.1933C558.708 38.9426 556.814 38.9426 555.546 39.1933Z" fill="white"/>
<path d="M522.098 39.4999C522.042 39.5416 522 42.927 522 47.0228V54.4482H523.95H525.901V48.7364V43.0245H528.729H531.571L532.24 41.3667C532.602 40.4611 532.853 39.6392 532.811 39.5556C532.699 39.3884 522.265 39.3327 522.098 39.4999Z" fill="white"/>
<defs>
<linearGradient id="paint0_linear_25_4" x1="128.033" y1="-4.66667" x2="307.32" y2="517.782" gradientUnits="userSpaceOnUse">
<stop stop-color="#8774FC"/>
<stop offset="1" stop-color="#83ECF2"/>
</linearGradient>
<clipPath id="clip0_25_4">
<rect width="1291" height="160" rx="20" fill="white"/>
</clipPath>
<clipPath id="clip1_25_4">
<rect width="446.35" height="470.55" fill="white" transform="translate(197 -144)"/>
</clipPath>
<clipPath id="clip2_25_4">
<rect width="386" height="190" fill="white" transform="translate(71)"/>
</clipPath>
</defs>
</svg>
